<svg width="1051" height="232" viewBox="0 0 1051 232" fill="none" xmlns="http://www.w3.org/2000/svg">
<path d="M38.9492 48.1611C43.9163 48.7008 48.2563 49.7182 52.9466 51.3446C53.9192 51.6813 53.9192 51.6813 54.9115 52.0249C57.0017 52.7538 59.0865 53.4952 61.1702 54.2403C61.8832 54.4938 62.5961 54.7474 63.3307 55.0086C84.4525 62.557 103.435 71.9678 119.844 86.8789C120.699 87.6385 121.553 88.3981 122.434 89.1807C128.051 94.3003 132.622 99.5599 136.822 105.766C137.479 106.698 138.137 107.631 138.815 108.591C148.194 122.305 153.216 137.557 157.045 153.396C157.22 154.111 157.396 154.827 157.576 155.564C158.492 159.5 158.983 163.09 158.793 167.147C150.911 163.342 143.891 158.941 136.822 153.927C135.462 153.021 135.462 153.021 134.075 152.097C128.123 148.131 122.715 143.844 117.386 139.153C115.311 137.333 113.204 135.586 111.043 133.86C101.062 125.626 92.0624 116.555 83.8906 106.71C82.2143 104.755 80.5241 102.812 78.8347 100.867C77.5239 99.352 76.2131 97.8371 74.9023 96.3223C81.0849 113.014 92.1155 127.003 104.863 139.762C105.624 140.553 106.385 141.344 107.169 142.159C122.105 157.097 141.236 168.687 160.416 178.184C161.066 178.517 161.717 178.849 162.387 179.191C166.662 181.227 169.208 181.734 173.773 180.368C176.772 179.152 179.639 177.756 182.512 176.296C183.342 175.877 184.171 175.458 185.026 175.026C200.203 167.21 216.343 157.72 228.275 145.74C229.701 144.483 229.701 144.483 231.698 144.483C231.946 143.933 232.195 143.383 232.451 142.816C233.872 140.406 235.465 139.014 237.628 137.165C246.363 129.064 252.713 118.959 258.725 108.953C259.095 108.339 259.464 107.724 259.845 107.092C261.891 103.59 263.451 100.156 264.655 96.3223C264.122 96.9516 263.589 97.581 263.04 98.2294C258.202 103.888 253.219 109.339 248.005 114.693C246.061 116.703 244.176 118.742 242.309 120.816C239.258 124.131 236.036 127.263 232.759 130.377C232.282 130.833 231.804 131.289 231.312 131.759C194.731 166.203 194.731 166.203 180.764 166.203C182.895 138.495 195.55 109.85 216.278 90.15C217.606 88.873 218.892 87.5565 220.174 86.2371C237.919 68.3428 263.76 59.0776 287.625 50.9941C288.926 50.5502 288.926 50.5502 290.253 50.0973C291.042 49.8369 291.83 49.5766 292.642 49.3084C293.318 49.0843 293.995 48.8602 294.691 48.6294C296.613 48.1611 296.613 48.1611 300.608 48.1611C305.889 70.691 300.313 96.6536 287.625 116.153C286.936 117.214 286.248 118.274 285.538 119.366C280.077 127.219 273.647 134.057 266.652 140.706C266.17 141.166 265.687 141.627 265.189 142.101C244.761 161.306 217.8 172.585 191.083 181.711C186.265 183.359 181.503 185.126 176.77 186.979C179.884 189.477 183.002 191.973 186.125 194.463C188.348 196.238 190.557 198.025 192.757 199.827C208.496 212.58 225.703 222.053 245.68 227.585C235.243 233.068 217.757 231.485 206.43 229.3C191.976 225.166 183.218 217.023 175.771 204.921C170.777 195.706 170.777 195.706 170.777 192.645C170.118 192.645 169.459 192.645 168.78 192.645C168.224 194.427 168.224 194.427 167.656 196.245C162.834 209.755 154.323 220.12 140.816 226.641C126.274 232.922 109.201 231.216 93.8776 228.529C93.8776 227.906 93.8776 227.283 93.8776 226.641C94.6899 226.456 95.5023 226.271 96.3392 226.08C116.149 221.192 133.5 211.759 148.42 198.513C151.136 196.13 153.943 193.878 156.796 191.641C157.702 190.929 158.608 190.217 159.542 189.483C161.789 187.923 161.789 187.923 163.786 187.923C163.786 187.3 163.786 186.676 163.786 186.034C163.001 185.944 162.216 185.854 161.407 185.761C128.824 179.706 95.7172 161.223 71.9063 139.762C71.3218 139.269 70.7373 138.776 70.1351 138.268C56.0476 125.916 45.5387 108.156 40.9466 90.6563C40.6505 89.7433 40.3544 88.8303 40.0493 87.8896C36.7738 76.4952 34.9821 59.4147 38.9492 48.1611Z" fill="#5AA650"/>
<path d="M168.78 0C173.753 3.67016 177.692 7.7354 181.763 12.2764C182.693 13.2869 183.624 14.2963 184.556 15.3049C218.191 51.811 218.191 51.811 217.474 74.1119C216.349 79.0531 213.684 81.1186 209.715 84.3299C196.125 95.3882 187.113 112.808 180.955 128.419C179.766 131.263 179.766 131.263 177.768 134.096C177.723 132.989 177.679 131.883 177.632 130.743C176.576 105.16 175.363 79.8996 169.779 54.7715C168.127 59.7617 167.189 64.5955 166.529 69.7813C166.423 70.5873 166.318 71.3933 166.209 72.2237C165.871 74.8454 165.545 77.4681 165.222 80.0915C165.11 80.9847 164.999 81.8778 164.884 82.7981C162.772 99.8989 161.882 116.885 161.789 134.096C159.367 131.806 158.814 129.946 157.669 126.895C151.388 111.189 139.697 86.3499 122.84 78.3799C121.179 53.4675 137.535 34.1936 153.799 16.0537C154.298 15.4974 154.796 14.9411 155.309 14.3679C165.269 3.26286 165.269 3.26286 168.78 0Z" fill="#308BB2"/>
<path d="M289.498 131.322C292.322 131.621 292.322 131.621 295.615 132.207C296.575 132.353 296.575 132.353 297.555 132.502C311.975 134.708 325.749 139.145 339.557 143.539C337.185 153.39 329.398 161.576 322.579 169.036C321.955 169.775 321.331 170.514 320.687 171.275C306.342 187.753 280.711 198.519 258.663 201.144C253.853 201.396 249.061 201.408 244.244 201.38C243.013 201.387 241.781 201.394 240.513 201.402C227.917 201.377 216.935 199.325 205.045 195.478C203.964 195.142 202.884 194.806 201.77 194.459C193.877 191.945 193.877 191.945 192.749 189.812C196.282 188.317 199.209 187.65 203.067 187.458C204.1 187.399 205.132 187.34 206.196 187.278C207.299 187.218 208.402 187.158 209.539 187.097C237.903 185.24 272.398 180.601 293.617 160.537C292.291 161.068 292.291 161.068 290.937 161.611C271.206 169.378 250.154 174.906 228.702 175.646C230.777 173.525 232.718 172.153 235.431 170.836C236.526 170.291 236.526 170.291 237.643 169.735C238.421 169.349 239.198 168.962 240 168.564C248.655 164.131 256.215 159.052 263.656 152.982C264.455 152.338 264.455 152.338 265.271 151.68C270.918 147.087 275.809 142.498 280.197 136.752C283.104 133.335 284.764 131.514 289.498 131.322Z" fill="#2A87B0"/>
<path d="M40.1108 132.868C45.3886 132.247 50.7593 131.705 55.9271 133.151C59.3046 135.674 61.4531 138.198 63.823 141.547C66.6275 145.485 70.0607 148.109 73.9036 151.094C74.4791 151.6 75.0546 152.107 75.6475 152.628C86.2377 161.931 99.047 168.553 111.854 174.702C111.854 175.014 111.854 175.325 111.854 175.646C105.055 175.922 98.9476 174.894 92.3171 173.522C91.2544 173.306 90.1917 173.089 89.0967 172.867C76.3656 170.244 64.1465 167.072 52.0025 162.588C49.3277 161.425 49.3277 161.425 47.9375 161.481C53.9804 166.033 60.0712 169.804 66.9752 173.05C67.9272 173.498 67.9272 173.498 68.8985 173.955C77.5336 177.913 86.1174 180.913 95.5005 182.847C96.4578 183.048 97.4152 183.248 98.4015 183.455C110.633 185.947 122.82 187.015 135.292 187.654C139.356 187.964 142.927 188.665 146.809 189.812C131.138 202.13 103.77 202.352 84.703 200.987C80.7202 200.623 76.8234 200.012 72.9049 199.255C71.3775 198.963 71.3775 198.963 69.8191 198.665C43.9333 193.12 21.5261 177.627 6.94017 156.852C0 146.423 0 146.423 0 143.539C27.505 134.523 27.505 134.523 40.1108 132.868Z" fill="#277FA8"/>
<path d="M377.508 72.7139C383.44 72.7139 389.372 72.7139 395.484 72.7139C396.271 74.0298 397.058 75.3457 397.868 76.7015C398.388 77.571 398.908 78.4405 399.443 79.3364C400.6 81.2714 401.756 83.2066 402.911 85.1422C406.001 90.3171 409.101 95.4866 412.22 100.646C412.816 101.633 413.411 102.62 414.024 103.637C415.176 105.548 416.332 107.457 417.492 109.364C418.011 110.228 418.531 111.091 419.067 111.981C419.528 112.743 419.989 113.505 420.465 114.29C421.451 116.153 421.451 116.153 421.451 118.042C422.11 118.042 422.769 118.042 423.448 118.042C423.712 117.382 423.975 116.722 424.247 116.042C425.542 113.101 427.045 110.348 428.636 107.54C428.945 106.995 429.253 106.45 429.571 105.888C430.565 104.134 431.563 102.382 432.561 100.631C433.067 99.7409 433.067 99.7409 433.583 98.833C447.281 74.7306 447.281 74.7306 449.414 72.7139C455.017 72.7139 460.619 72.7139 466.392 72.7139C466.392 98.8909 466.392 125.068 466.392 152.038C460.789 152.038 455.187 152.038 449.414 152.038C449.085 136.145 448.755 120.252 448.415 103.877C446.768 106.993 445.12 110.11 443.422 113.32C442.3 115.227 441.156 117.123 439.981 119.001C439.38 119.968 438.779 120.934 438.159 121.93C437.548 122.906 436.936 123.883 436.306 124.888C435.074 126.86 433.844 128.832 432.616 130.805C432.077 131.665 431.539 132.525 430.984 133.411C429.363 136.112 427.889 138.861 426.444 141.65C423.529 141.925 421.296 142.129 418.454 141.65C416.084 139.301 416.084 139.301 414.171 136.025C413.644 135.15 413.644 135.15 413.106 134.258C411.989 132.388 410.915 130.499 409.841 128.607C409.113 127.374 408.382 126.142 407.648 124.912C405.554 121.382 403.513 117.825 401.477 114.265C398.51 109.123 398.51 109.123 395.484 103.877C395.155 119.77 394.825 135.663 394.486 152.038C388.883 152.038 383.28 152.038 377.508 152.038C377.508 125.861 377.508 99.6841 377.508 72.7139Z" fill="#12212F"/>
<path d="M999.697 72.7139C1005.96 72.7139 1012.22 72.7139 1018.67 72.7139C1020.07 75.92 1021.46 79.1269 1022.85 82.3343C1023.24 83.2223 1023.63 84.1103 1024.03 85.0253C1026.09 89.7893 1028.11 94.5661 1030.05 99.3766C1032.71 105.947 1035.5 112.466 1038.3 118.98C1039.15 120.935 1039.99 122.89 1040.83 124.846C1041.1 125.485 1041.38 126.125 1041.66 126.784C1042.21 128.05 1042.75 129.317 1043.29 130.585C1044.55 133.499 1045.83 136.396 1047.15 139.282C1047.61 140.276 1048.07 141.271 1048.54 142.296C1048.94 143.157 1049.35 144.018 1049.77 144.906C1050.63 147.316 1050.63 147.316 1050.63 152.038C1044.7 152.038 1038.77 152.038 1032.65 152.038C1030.59 146.701 1028.56 141.377 1026.66 135.984C1015.13 135.984 1003.59 135.984 991.707 135.984C989.73 141.282 987.752 146.58 985.715 152.038C979.453 152.038 973.191 152.038 966.74 152.038C968.917 144.789 971.589 137.846 974.542 130.85C975.011 129.729 975.481 128.609 975.964 127.455C977.261 124.36 978.565 121.267 979.869 118.175C980.76 116.062 981.648 113.949 982.536 111.836C984.098 108.121 985.661 104.407 987.227 100.693C987.836 99.2491 988.444 97.8046 989.053 96.3599C996.34 79.0617 996.34 79.0617 999.697 72.7139Z" fill="#162432"/>
<path d="M604.212 72.7139C610.474 72.7139 616.736 72.7139 623.188 72.7139C627.661 82.3174 631.741 92.0428 635.776 101.818C639.548 110.938 643.425 120.014 647.364 129.07C656.145 149.304 656.145 149.304 656.145 152.038C649.883 152.038 643.621 152.038 637.169 152.038C634.203 144.091 634.203 144.091 631.177 135.984C613.875 135.517 613.875 135.517 596.223 135.04C595.893 136.598 595.564 138.156 595.224 139.762C593.661 143.894 591.932 147.954 590.23 152.038C584.298 152.038 578.366 152.038 572.254 152.038C573.096 147.258 574.345 143.325 576.241 138.899C576.693 137.823 576.693 137.823 577.155 136.725C578.137 134.391 579.128 132.059 580.119 129.728C580.801 128.112 581.482 126.496 582.162 124.88C583.533 121.626 584.906 118.373 586.281 115.12C588.034 110.965 589.77 106.804 591.494 102.638C591.742 102.041 591.989 101.444 592.243 100.829C593.374 98.0942 594.504 95.3591 595.633 92.6238C598.399 85.9482 601.276 79.324 604.212 72.7139Z" fill="#152432"/>
<path d="M767.765 72.6067C768.513 72.6116 769.261 72.6165 770.031 72.6216C770.839 72.6247 771.647 72.6277 772.479 72.6309C773.328 72.6388 774.177 72.6467 775.052 72.6548C775.905 72.6591 776.758 72.6634 777.637 72.6678C779.75 72.6789 781.864 72.6959 783.978 72.7139C787.231 78.6369 789.949 84.6709 792.557 90.8702C792.982 91.8762 793.408 92.8822 793.847 93.9186C794.744 96.0403 795.64 98.1625 796.534 100.285C797.885 103.495 799.244 106.702 800.603 109.908C804.564 119.278 808.513 128.631 811.976 138.178C813.201 141.39 814.665 144.462 816.237 147.534C816.935 149.205 816.935 149.205 816.935 152.038C810.673 152.038 804.411 152.038 797.96 152.038C797.136 149.759 796.312 147.48 795.463 145.133C795.202 144.419 794.941 143.705 794.673 142.97C793.688 140.21 792.966 137.971 792.966 135.04C781.102 135.04 769.237 135.04 757.013 135.04C756.024 138.468 755.036 141.896 754.017 145.428C753.028 147.609 752.04 149.791 751.021 152.038C745.089 152.038 739.156 152.038 733.044 152.038C735.285 144.539 738.101 137.374 741.159 130.141C741.898 128.378 742.637 126.615 743.376 124.852C743.874 123.665 744.373 122.477 744.872 121.29C746.787 116.734 748.674 112.167 750.552 107.596C753.97 99.2872 757.452 91.0048 761.008 82.7474C761.586 81.3983 761.586 81.3983 762.177 80.0219C762.532 79.2 762.888 78.3782 763.255 77.5315C763.569 76.8043 763.883 76.0771 764.207 75.3278C765.436 72.7482 765.436 72.7482 767.765 72.6067Z" fill="#162433"/>
<path d="M512.332 72.7139C518.594 72.7139 524.856 72.7139 531.307 72.7139C534.834 80.3146 538.121 87.841 540.924 95.7136C542.044 98.5307 543.264 101.205 544.599 103.932C547.591 110.074 550.19 116.344 552.779 122.646C553.239 123.757 553.698 124.868 554.172 126.014C555.544 129.335 556.908 132.66 558.272 135.984C558.741 137.118 559.209 138.252 559.692 139.42C560.14 140.509 560.588 141.598 561.05 142.72C561.452 143.695 561.854 144.671 562.269 145.675C563.266 148.261 563.266 148.261 564.264 152.038C558.002 152.038 551.741 152.038 545.289 152.038C542.323 144.091 542.323 144.091 539.297 135.984C527.762 135.984 516.227 135.984 504.342 135.984C502.365 141.282 500.388 146.58 498.35 152.038C492.418 152.038 486.486 152.038 480.374 152.038C483.525 140.119 488.682 128.781 493.482 117.393C494.243 115.579 495.004 113.766 495.765 111.952C497.954 106.741 500.148 101.531 502.345 96.3223C502.647 95.606 502.949 94.8898 503.26 94.1519C506.275 87.0023 509.297 79.8558 512.332 72.7139Z" fill="#162432"/>
<path d="M810.943 72.7138C817.205 72.7138 823.466 72.7138 829.918 72.7138C830.463 74.1442 831.007 75.5745 831.568 77.0482C831.928 77.9928 832.287 78.9375 832.658 79.9107C833.461 82.0194 834.264 84.1282 835.066 86.237C837.174 91.7751 839.284 97.3123 841.399 102.848C841.798 103.892 842.196 104.936 842.607 106.011C843.367 108.003 844.128 109.994 844.89 111.985C846.502 116.209 848.102 120.437 849.65 124.682C849.891 125.34 850.132 125.998 850.38 126.676C850.891 128.43 850.891 128.43 850.891 131.263C851.55 131.263 852.209 131.263 852.888 131.263C852.972 130.235 853.055 129.208 853.142 128.149C853.85 122.848 855.84 118.063 857.819 113.084C858.63 111.004 859.44 108.923 860.25 106.843C860.675 105.754 861.101 104.665 861.54 103.543C862.937 99.9391 864.303 96.3258 865.657 92.7072C865.884 92.1 866.111 91.4928 866.346 90.8671C867.459 87.8942 868.57 84.9205 869.678 81.946C870.08 80.8763 870.482 79.8066 870.896 78.7045C871.252 77.7519 871.608 76.7994 871.974 75.818C872.862 73.6582 872.862 73.6582 873.861 72.7138C875.202 72.6323 876.547 72.6127 877.891 72.6216C878.698 72.6247 879.506 72.6277 880.339 72.6308C881.188 72.6388 882.037 72.6467 882.911 72.6548C883.764 72.6591 884.617 72.6633 885.496 72.6677C887.61 72.6789 889.723 72.6958 891.837 72.7138C890.748 79.6546 888.109 85.8339 885.33 92.3125C884.732 93.708 884.134 95.1036 883.536 96.4993C883.213 97.2526 882.89 98.0059 882.557 98.782C877.841 109.899 873.476 121.146 869.059 132.372C868.581 133.585 868.581 133.585 868.092 134.824C867.491 136.349 866.891 137.875 866.293 139.402C866.019 140.098 865.745 140.793 865.462 141.51C865.227 142.109 864.991 142.708 864.749 143.326C863.528 146.257 862.19 149.143 860.878 152.038C854.616 152.038 848.354 152.038 841.902 152.038C841.318 150.576 840.733 149.114 840.131 147.608C834.311 133.064 828.459 118.532 822.588 104.007C821.774 101.993 820.961 99.9786 820.149 97.964C818.995 95.1031 817.838 92.2432 816.681 89.3836C816.333 88.519 815.985 87.6545 815.626 86.7637C815.302 85.9629 814.977 85.1621 814.643 84.3371C814.361 83.6396 814.079 82.9421 813.789 82.2235C812.974 80.2422 812.974 80.2422 811.835 78.3617C810.943 76.4912 810.943 76.4912 810.943 72.7138Z" fill="#162433"/>
<path d="M898.828 72.7139C905.193 71.328 911.632 70.1484 917.803 72.7139C923.578 78.2564 926.912 85.6623 930.368 92.6298C932.238 96.2568 934.435 99.5638 936.779 102.933C939.853 99.5378 941.956 96.1978 943.992 92.1724C953.56 74.1703 953.56 74.1703 959.354 71.527C965.017 70.4918 970.209 71.3355 975.728 72.7139C974.323 76.3361 972.536 79.4288 970.36 82.6884C966.222 88.9374 962.214 95.2556 958.228 101.592C957.75 102.348 957.272 103.105 956.78 103.884C956.3 104.66 955.819 105.436 955.324 106.236C953.756 108.599 953.756 108.599 951.863 110.89C945.478 118.937 945.754 126.508 945.829 136.161C945.816 137.706 945.8 139.251 945.781 140.796C945.734 144.545 945.752 148.287 945.767 152.038C939.835 152.038 933.902 152.038 927.79 152.038C927.892 149.937 927.994 147.836 928.099 145.671C928.706 125.843 925.981 113.322 913.622 96.859C911.293 93.7399 909.25 90.5171 907.192 87.233C905.557 84.7522 903.907 82.2827 902.238 79.8222C898.828 74.7724 898.828 74.7724 898.828 72.7139Z" fill="#162433"/>
<path d="M669.128 72.7139C674.73 72.7139 680.333 72.7139 686.105 72.7139C686.105 93.9048 686.105 115.096 686.105 136.929C698.959 136.929 711.812 136.929 725.055 136.929C725.055 141.915 725.055 146.901 725.055 152.038C706.599 152.038 688.143 152.038 669.128 152.038C669.128 125.861 669.128 99.6841 669.128 72.7139Z" fill="#152331"/>
<path d="M657.143 188.867C660.13 188.809 663.117 188.75 666.194 188.69C667.121 188.664 668.048 188.638 669.003 188.612C675.245 188.553 680.108 189.32 685.044 193.235C686.728 196.793 686.889 200.158 686.105 203.977C683.796 206.869 683.796 206.869 681.112 208.698C680.123 208.698 679.135 208.698 678.116 208.698C679.089 210.097 679.089 210.097 680.082 211.524C680.925 212.746 681.768 213.968 682.61 215.191C683.039 215.805 683.467 216.42 683.909 217.053C687.104 221.705 687.104 221.705 687.104 223.808C684.046 224.398 684.046 224.398 680.113 223.808C676.334 220.058 673.119 215.75 672.124 210.587C669.487 210.587 666.851 210.587 664.134 210.587C664.134 214.95 664.134 219.313 664.134 223.808C661.827 223.808 659.52 223.808 657.143 223.808C657.143 212.277 657.143 200.747 657.143 188.867Z" fill="#57AE6E"/>
<path d="M759.01 188.867C762.018 188.809 765.025 188.75 768.124 188.69C769.06 188.664 769.996 188.639 770.96 188.612C776.991 188.556 780.902 189.519 785.819 193.006C787.864 195.711 787.493 198.445 787.403 201.66C786.755 205.16 784.967 206.681 781.98 208.698C781.321 208.698 780.662 208.698 779.983 208.698C780.488 209.494 780.992 210.291 781.512 211.111C782.161 212.145 782.81 213.18 783.478 214.246C784.127 215.276 784.776 216.306 785.445 217.367C786.974 220.03 786.974 220.03 786.974 221.919C787.633 221.919 788.292 221.919 788.971 221.919C788.971 222.542 788.971 223.165 788.971 223.808C786.005 223.808 783.039 223.808 779.983 223.808C779.406 222.678 778.83 221.548 778.235 220.384C775.525 215.24 775.525 215.24 771.993 210.587C769.686 210.275 767.379 209.964 765.003 209.643C765.003 214.317 765.003 218.992 765.003 223.808C763.025 223.808 761.048 223.808 759.01 223.808C759.01 212.277 759.01 200.747 759.01 188.867Z" fill="#50A969"/>
<path d="M709.076 188.867C712.083 188.809 715.09 188.75 718.189 188.69C719.125 188.664 720.061 188.639 721.025 188.612C727.418 188.552 731.547 189.642 736.477 193.707C738.423 197.092 738.359 199.141 737.726 202.885C736.669 206.019 734.739 207.655 732.046 209.643C728.984 211.09 725.786 210.684 722.433 210.646C721.728 210.642 721.022 210.637 720.295 210.633C718.553 210.622 716.81 210.605 715.068 210.587C715.068 214.95 715.068 219.313 715.068 223.808C713.09 223.808 711.113 223.808 709.076 223.808C709.076 212.277 709.076 200.747 709.076 188.867Z" fill="#56AD6E"/>
<path d="M508.337 188.867C515.328 188.867 515.328 188.867 517.25 190.338C517.732 191.014 518.214 191.69 518.71 192.386C519.256 193.128 519.801 193.869 520.363 194.633C520.905 195.418 521.448 196.203 522.007 197.012C522.561 197.775 523.115 198.539 523.686 199.325C525.252 201.491 526.785 203.674 528.311 205.865C530.289 208.67 530.289 208.67 532.306 211.531C532.636 204.052 532.965 196.573 533.305 188.867C535.282 188.867 537.26 188.867 539.297 188.867C539.297 200.398 539.297 211.928 539.297 223.808C533.305 223.808 533.305 223.808 531.496 222.337C531.009 221.661 530.522 220.985 530.02 220.288C529.471 219.547 528.923 218.806 528.358 218.042C527.807 217.257 527.256 216.472 526.688 215.663C526.13 214.899 525.571 214.136 524.995 213.35C523.415 211.183 521.863 209.001 520.322 206.81C519.003 204.94 517.685 203.07 516.327 201.144C515.997 208.623 515.668 216.102 515.328 223.808C513.021 223.808 510.714 223.808 508.337 223.808C508.337 212.277 508.337 200.747 508.337 188.867Z" fill="#57AE6C"/>
<path d="M460.4 188.867C468.969 188.867 477.537 188.867 486.366 188.867C486.366 190.737 486.366 192.607 486.366 194.533C480.434 194.533 474.501 194.533 468.389 194.533C468.389 197.338 468.389 200.143 468.389 203.032C473.662 203.032 478.936 203.032 484.368 203.032C484.368 204.902 484.368 206.772 484.368 208.698C478.766 208.698 473.163 208.698 467.391 208.698C467.391 211.815 467.391 214.931 467.391 218.142C473.652 218.142 479.914 218.142 486.366 218.142C486.366 220.011 486.366 221.881 486.366 223.808C477.797 223.808 469.228 223.808 460.4 223.808C460.4 212.277 460.4 200.747 460.4 188.867Z" fill="#5BAE72"/>
<path d="M887.842 188.867C896.411 188.867 904.98 188.867 913.809 188.867C913.809 190.737 913.809 192.607 913.809 194.533C907.547 194.533 901.285 194.533 894.833 194.533C894.833 197.338 894.833 200.143 894.833 203.032C895.975 203.021 897.117 203.01 898.294 202.999C899.783 202.99 901.272 202.982 902.761 202.973C903.891 202.961 903.891 202.961 905.045 202.949C906.967 202.941 908.89 202.983 910.813 203.032C911.811 203.977 911.811 203.977 911.811 208.698C906.209 208.698 900.606 208.698 894.833 208.698C894.833 211.815 894.833 214.931 894.833 218.142C901.095 218.142 907.357 218.142 913.809 218.142C913.809 220.011 913.809 221.881 913.809 223.808C905.24 223.808 896.671 223.808 887.842 223.808C887.842 212.277 887.842 200.747 887.842 188.867Z" fill="#57AC6E"/>
<path d="M610.204 188.867C618.444 188.867 626.683 188.867 635.172 188.867C635.172 190.737 635.172 192.607 635.172 194.533C629.24 194.533 623.307 194.533 617.195 194.533C617.195 197.338 617.195 200.143 617.195 203.032C622.468 203.032 627.742 203.032 633.174 203.032C633.174 204.902 633.174 206.772 633.174 208.698C627.572 208.698 621.969 208.698 616.197 208.698C616.197 211.815 616.197 214.931 616.197 218.142C622.788 218.142 629.379 218.142 636.171 218.142C636.171 220.011 636.171 221.881 636.171 223.808C627.602 223.808 619.033 223.808 610.204 223.808C610.204 212.277 610.204 200.747 610.204 188.867Z" fill="#56AE6E"/>
<path d="M864.872 190.756C864.872 192.626 864.872 194.495 864.872 196.422C864.351 196.268 863.83 196.115 863.293 195.957C860.224 195.348 857.333 195.353 854.199 195.359C852.463 195.356 852.463 195.356 850.692 195.352C847.989 195.176 847.989 195.176 846.896 196.422C846.855 197.995 846.853 199.57 846.896 201.144C849.846 202.364 852.685 203.221 855.822 203.858C859.776 204.751 862.647 206.318 865.871 208.698C867.419 211.626 867.159 213.967 866.87 217.197C864.682 220.522 862.723 222.406 858.88 223.808C855.642 224.092 855.642 224.092 852.014 224.103C850.822 224.119 849.63 224.134 848.402 224.151C844.613 223.78 842.18 222.768 838.906 220.975C838.906 219.416 838.906 217.858 838.906 216.253C839.833 216.409 840.76 216.565 841.715 216.725C850.505 217.981 850.505 217.981 858.88 216.253C858.88 215.006 858.88 213.76 858.88 212.476C858.324 212.315 857.768 212.154 857.195 211.989C844.653 208.223 844.653 208.223 839.905 204.154C838.39 201.02 838.409 198.885 838.906 195.478C844.211 186.867 855.961 187.011 864.872 190.756Z" fill="#5EB173"/>
<path d="M948.076 188.69C949.205 188.677 950.335 188.663 951.498 188.65C954.687 188.863 956.88 189.468 959.749 190.756C959.749 192.626 959.749 194.495 959.749 196.422C958.739 196.11 957.73 195.799 956.69 195.478C952.131 194.256 947.813 193.74 943.333 195.478C942.818 195.789 942.303 196.101 941.772 196.422C942.102 197.98 942.431 199.538 942.771 201.144C943.639 201.361 944.506 201.579 945.4 201.804C958.092 205.2 958.092 205.2 961.746 209.643C962.52 212.642 962.533 215.144 961.746 218.142C959.567 220.744 957.879 222.331 954.755 223.808C947.464 224.309 941.242 224.385 934.781 220.975C934.781 219.416 934.781 217.858 934.781 216.253C935.465 216.408 936.148 216.562 936.853 216.721C940.149 217.258 943.236 217.288 946.578 217.256C948.318 217.243 948.318 217.243 950.093 217.23C950.973 217.219 951.852 217.209 952.758 217.197C953.087 215.639 953.417 214.081 953.757 212.476C952.797 212.116 952.797 212.116 951.818 211.749C950.027 211.075 948.238 210.397 946.45 209.716C944.844 209.106 943.235 208.504 941.62 207.916C938.185 206.625 936.895 206.03 934.781 203.032C934.237 200.138 934.239 197.428 934.781 194.533C938.934 189.573 941.588 188.725 948.076 188.69Z" fill="#59AE6F"/>
<path d="M1008.68 91.6006C1011.28 94.0568 1011.93 96.7462 1012.99 99.9816C1014.93 105.713 1017.17 111.224 1019.75 116.729C1020.67 118.986 1020.67 118.986 1020.67 121.819C1012.76 121.819 1004.85 121.819 996.701 121.819C1000.08 111.182 1000.08 111.182 1001.7 107.149C1002.05 106.289 1002.39 105.429 1002.75 104.543C1003.1 103.68 1003.45 102.818 1003.82 101.929C1004.18 101.034 1004.53 100.139 1004.9 99.2161C1007.56 92.6687 1007.56 92.6687 1008.68 91.6006Z" fill="#F6F6F7"/>
<path d="M773.991 91.6006C774.65 91.6006 775.309 91.6006 775.988 91.6006C776.219 92.2871 776.449 92.9737 776.687 93.6811C778.793 99.8215 781.148 105.787 783.83 111.723C784.208 112.562 784.587 113.401 784.977 114.265C785.355 115.094 785.734 115.923 786.124 116.777C786.974 118.986 786.974 118.986 786.974 121.819C779.064 121.819 771.155 121.819 763.005 121.819C766.376 110.133 766.376 110.133 768.042 106.079C768.392 105.218 768.743 104.357 769.105 103.469C769.461 102.611 769.817 101.752 770.183 100.867C770.551 99.9679 770.918 99.0689 771.297 98.1427C772.19 95.9602 773.088 93.7796 773.991 91.6006Z" fill="#F5F5F6"/>
<path d="M613.201 91.6006C615.875 94.6258 617.247 97.5983 618.674 101.291C619.115 102.425 619.556 103.559 620.01 104.727C620.234 105.314 620.459 105.9 620.69 106.505C621.38 108.31 622.079 110.112 622.78 111.913C626.184 120.715 626.184 120.715 626.184 121.819C618.274 121.819 610.364 121.819 602.215 121.819C602.955 117.621 603.742 114.388 605.242 110.469C605.64 109.426 606.038 108.384 606.448 107.309C606.863 106.235 607.279 105.161 607.708 104.054C608.124 102.961 608.539 101.869 608.968 100.743C612.064 92.6751 612.064 92.6751 613.201 91.6006Z" fill="#F5F5F6"/>
<path d="M521.32 91.6006C524.448 93.0791 524.706 95.5217 525.916 98.5614C526.157 99.1634 526.398 99.7655 526.646 100.386C527.155 101.66 527.66 102.936 528.162 104.213C528.932 106.17 529.713 108.123 530.496 110.076C534.303 119.648 534.303 119.648 534.303 121.819C526.064 121.819 517.825 121.819 509.336 121.819C510.263 119.326 511.19 116.833 512.145 114.265C512.43 113.495 512.716 112.726 513.01 111.933C515.568 105.067 518.233 98.2723 521.32 91.6006Z" fill="#F5F6F7"/>
<path d="M560.27 188.867C570.157 188.867 580.044 188.867 590.23 188.867C590.23 190.737 590.23 192.607 590.23 194.533C586.276 194.533 582.321 194.533 578.246 194.533C578.246 204.194 578.246 213.854 578.246 223.808C576.269 223.808 574.291 223.808 572.254 223.808C572.254 214.147 572.254 204.487 572.254 194.533C568.299 194.533 564.344 194.533 560.27 194.533C560.27 192.663 560.27 190.794 560.27 188.867Z" fill="#55AA6B"/>
<path d="M809.944 188.867C812.251 188.867 814.558 188.867 816.935 188.867C816.935 200.398 816.935 211.928 816.935 223.808C814.628 223.808 812.321 223.808 809.944 223.808C809.944 212.277 809.944 200.747 809.944 188.867Z" fill="#5DB075"/>
<path d="M765.003 194.533C766.916 194.456 768.831 194.402 770.745 194.356C772.344 194.307 772.344 194.307 773.975 194.257C777.287 194.561 778.575 195.262 780.982 197.366C780.67 200.081 780.67 200.081 779.983 203.032C776.461 205.253 774.961 205.123 770.808 205.039C769.722 205.022 768.637 205.005 767.519 204.987C766.273 204.954 766.273 204.954 765.003 204.921C765.003 201.493 765.003 198.065 765.003 194.533Z" fill="#F3F9F4"/>
<path d="M664.134 194.533C666.069 194.482 668.004 194.446 669.939 194.415C671.017 194.393 672.094 194.371 673.204 194.349C676.118 194.533 676.118 194.533 679.115 196.422C679.302 199.845 679.302 199.845 679.115 203.032C674.298 205.787 669.625 205.045 664.134 204.921C664.134 201.493 664.134 198.065 664.134 194.533Z" fill="#F7FBF8"/>
<path d="M716.066 194.533C718.001 194.457 719.936 194.402 721.871 194.356C722.949 194.323 724.026 194.29 725.137 194.257C728.051 194.533 728.051 194.533 729.912 195.813C731.534 198.033 731.465 199.451 731.047 202.088C729.912 203.641 729.912 203.641 728.051 204.921C725.137 205.198 725.137 205.198 721.871 205.098C720.786 205.072 719.701 205.047 718.583 205.02C717.337 204.971 717.337 204.971 716.066 204.921C716.066 201.493 716.066 198.065 716.066 194.533Z" fill="#F9FCFA"/>
<path d="M97.8724 169.036C102.838 170.445 107.279 172.44 111.854 174.702C111.854 175.014 111.854 175.325 111.854 175.646C107.027 175.725 102.629 175.602 97.8724 174.702C98.0578 174.118 98.2432 173.534 98.4342 172.932C99.1076 170.886 99.1076 170.886 97.8724 169.036Z" fill="#276891"/>
<path d="M242.684 169.98C242.024 170.604 241.365 171.227 240.686 171.869C241.675 172.492 242.664 173.116 243.682 173.758C240.853 175.095 238.215 175.029 235.069 175.233C233.882 175.312 232.695 175.392 231.472 175.473C230.558 175.53 229.644 175.588 228.702 175.646C230.837 173.451 232.882 172.038 235.693 170.689C236.372 170.353 237.052 170.017 237.753 169.671C239.688 169.036 239.688 169.036 242.684 169.98Z" fill="#2874A0"/>
<path d="M265.654 93.4893C265.983 94.1125 266.313 94.7358 266.652 95.3779C265.658 97.8347 265.658 97.8347 264.218 100.69C263.746 101.637 263.273 102.584 262.786 103.56C262.414 104.288 262.042 105.016 261.659 105.766C260.67 105.766 259.681 105.766 258.663 105.766C255.979 108.067 255.979 108.067 253.669 110.487C253.01 110.176 252.351 109.864 251.672 109.543C252.263 108.938 252.854 108.333 253.462 107.71C257.874 103.144 261.998 98.6187 265.654 93.4893Z" fill="#DEF1DC"/>
<path d="M12.9831 140.706C8.03952 143.043 8.03952 143.043 2.99609 145.428C3.67583 146.616 4.35557 147.804 5.05591 149.028C6.21455 151.053 6.21455 151.053 6.99089 152.982C6.66132 153.917 6.33174 154.852 5.99219 155.815C4.98841 154.126 3.99087 152.434 2.99609 150.74C2.16187 149.326 2.16187 149.326 1.31079 147.884C0 145.428 0 145.428 0 143.539C1.78578 142.881 3.57596 142.234 5.368 141.591C6.36444 141.23 7.36087 140.868 8.3875 140.496C10.9857 139.762 10.9857 139.762 12.9831 140.706Z" fill="#48A8CB"/>
<path d="M240.686 134.096C241.345 134.407 242.004 134.719 242.684 135.04C238.729 139.091 234.774 143.142 230.699 147.316C229.71 147.005 228.722 146.693 227.703 146.372C228.321 146.138 228.939 145.905 229.576 145.664C231.812 144.668 231.812 144.668 232.603 142.742C233.853 140.412 235.331 138.972 237.316 137.165C237.946 136.585 238.577 136.006 239.227 135.409C239.949 134.759 239.949 134.759 240.686 134.096Z" fill="#50A05B"/>
<path d="M160.79 116.153C161.12 116.153 161.45 116.153 161.789 116.153C161.789 122.074 161.789 127.995 161.789 134.096C159.275 131.719 158.683 129.775 157.794 126.541C158.169 124.298 158.169 124.298 158.793 122.764C159.123 123.075 159.452 123.387 159.792 123.708C160.121 121.215 160.451 118.722 160.79 116.153Z" fill="#216A90"/>
<path d="M181.763 120.875C183.021 124.443 182.243 125.629 180.827 129.079C180.447 130.017 180.067 130.956 179.676 131.923C179.376 132.64 179.076 133.357 178.767 134.096C178.437 134.096 178.108 134.096 177.768 134.096C177.768 130.356 177.768 126.617 177.768 122.764C178.757 122.764 179.746 122.764 180.764 122.764C181.094 122.14 181.423 121.517 181.763 120.875Z" fill="#165E87"/>
<path d="M168.78 52.8828C171.539 55.4913 171.355 57.8 171.776 61.3818C170.787 61.6935 169.799 62.0051 168.78 62.3262C168.121 63.2611 167.462 64.196 166.783 65.1592C166.924 63.6439 167.071 62.1291 167.219 60.6146C167.301 59.771 167.382 58.9274 167.465 58.0582C167.781 55.7158 167.781 55.7158 168.78 52.8828Z" fill="#D5EAF2"/>
<path d="M197.867 188.749C198.815 188.788 199.762 188.827 200.738 188.867C199.75 189.335 199.75 189.335 198.741 189.812C198.741 190.435 198.741 191.058 198.741 191.7C200.389 192.012 202.037 192.323 203.734 192.645C201.568 193.546 200.176 193.725 197.918 193.021C196.176 192.306 194.46 191.534 192.749 190.756C194.746 188.867 194.746 188.867 197.867 188.749Z" fill="#2A6289"/>
<path d="M103.865 225.696C102.876 226.32 101.887 226.943 100.868 227.585C101.198 228.208 101.528 228.831 101.867 229.474C99.2306 229.162 96.5941 228.85 93.8776 228.529C93.8776 227.906 93.8776 227.283 93.8776 226.641C95.1652 226.298 96.4558 225.965 97.7476 225.637C98.4659 225.451 99.1843 225.265 99.9244 225.073C101.867 224.752 101.867 224.752 103.865 225.696Z" fill="#A5CD81"/>
<path d="M293.617 159.593C294.276 159.904 294.935 160.216 295.615 160.537C293.308 162.095 291.001 163.653 288.624 165.259C287.965 164.324 287.305 163.389 286.626 162.426C288.927 161.419 291.26 160.476 293.617 159.593Z" fill="#CBE2EA"/>
</svg>
